<svg width="16" height="16" viewBox="0 0 16 16" fill="none" xmlns="http://www.w3.org/2000/svg">
  <path d="M15.0741 13.7986L2.30124 1.02619C1.94853 0.673494 1.37668 0.673503 1.02398 1.02622C0.671276 1.37893 0.671286 1.95078 1.024 2.30348L13.7969 15.0759C14.1496 15.4286 14.7214 15.4286 15.0741 15.0759C15.4268 14.7232 15.4268 14.1513 15.0741 13.7986Z" fill="#798092"/>
  <path d="M2.30284 15.0755L15.0752 2.30264C15.4279 1.94993 15.4279 1.37808 15.0752 1.02538C14.7225 0.67268 14.1507 0.67269 13.798 1.0254L1.02555 13.7983C0.672849 14.151 0.672859 14.7228 1.02557 15.0755C1.37828 15.4282 1.95014 15.4282 2.30284 15.0755Z" fill="#798092"/>
</svg>
