<svg width="138" height="138" viewBox="0 0 138 138" fill="none" xmlns="http://www.w3.org/2000/svg">
<g clip-path="url(#clip0_25_51)">
<path d="M134.244 101.278L114.986 82.0198C108.108 75.1418 96.4151 77.8933 93.6639 86.8344C91.6005 93.0248 84.7225 96.4638 78.5323 95.0879C64.7764 91.6489 46.2059 73.7662 42.7669 59.3225C40.7035 53.132 44.8303 46.2541 51.0205 44.191C59.9618 41.4398 62.713 29.7472 55.8351 22.8692L36.5767 3.61093C31.0744 -1.20364 22.8208 -1.20364 18.0062 3.61093L4.93808 16.6791C-8.13006 30.435 6.31368 66.8883 38.6401 99.2147C70.9666 131.541 107.42 146.673 121.176 132.917L134.244 119.849C139.059 114.346 139.059 106.093 134.244 101.278Z" fill="white"/>
</g>
<defs>
<clipPath id="clip0_25_51">
<rect width="138" height="138" fill="white"/>
</clipPath>
</defs>
</svg>
